<?xml version="1.0" encoding="UTF-8"?>
<svg id="a" data-name="Layer 1" xmlns="http://www.w3.org/2000/svg" viewBox="0 0 857.03 493.9">
  <defs>
    <style>
      .b {
        fill: #f9cbda;
      }

      .b, .c {
        stroke-width: 0px;
      }

      .c {
        fill: #442731;
      }
    </style>
  </defs>
  <g>
    <path class="c" d="m493.58,110.63c-.89.57-1.73,1.22-2.67,1.69-12.68,6.27-25.39,12.47-39.03,16.47-5.98,1.75-12.04,3.17-18.33,3.22-2.28.02-4.51-.26-6.67-1.05-6.01-2.18-8.74-7.09-7.46-13.45.94-4.66,3.07-8.88,4.92-13.2.93-2.17,1.99-4.3,2.58-6.84-1.53.15-2.7.7-3.87,1.21-10.61,4.64-20.63,10.46-30.91,15.74-4.69,2.41-9.35,4.91-14.27,6.85-1.41.56-2.84,1.03-4.38,1.05-4.23.06-6.5-3.58-4.63-7.38.63-1.28,1.7-2.25,2.41-3.51-4.9,2.82-9.73,5.72-14.79,8.21-4.75,2.33-9.55,4.5-14.82,5.42-1.63.29-3.27.32-4.89.06-4.01-.63-6.1-3.15-6.44-7.63-.77-.24-1.26.37-1.82.67-4.12,2.17-8.28,4.24-12.86,5.31-1.55.36-3.1.49-4.68.3-3.57-.43-5.77-2.8-5.96-6.38-.02-.36-.03-.71-.05-1.17-4.32,1.5-8.49,3.05-12.73,4.38-4.08,1.28-8.2,2.43-12.59,1.67-4.9-.85-7.31-4.59-5.95-9.38.57-2.01,1.6-3.81,2.49-5.68.45-.94.91-1.87,1.42-2.92-.98-.05-1.5.44-2.07.76-7.91,4.41-15.78,8.87-23.7,13.25-2.25,1.24-4.58,2.37-6.96,3.36-3.31,1.38-5.9,1.03-7.47-.93-1.96-2.45-1.28-4.97.11-7.38,1.69-2.94,3.47-5.82,5.25-8.79-.88-.22-1.37.38-1.93.69-9.27,5.2-18.58,10.3-28.52,14.15-2.7,1.05-5.47,1.87-8.35,2.29-6.71.97-10.83-3.78-8.89-10.25.65-2.17,1.7-4.18,2.57-6.26.23-.55.7-1.05.51-1.77-.84-.07-1.39.51-2,.87-7.71,4.51-15.38,9.06-23.1,13.55-1.73,1.01-3.55,1.9-5.41,2.66-3.24,1.33-5.95.88-7.46-1.05-1.53-1.96-1.31-4.63.9-7.43,3-3.79,6.16-7.46,9.25-11.19.68-.82,1.32-1.66,2.13-2.68-.97-.01-1.47.5-2.02.81-7.86,4.49-15.57,9.24-23.85,12.95-4.02,1.8-8.13,3.37-12.6,3.67-4.9.33-8.86-1.56-10.15-5.97-.39-1.32-.98-.53-1.49-.23-3.07,1.85-6.1,3.77-9.2,5.57-3.92,2.27-7.9,4.43-12.37,5.45-3.12.71-6.04.56-8.27-2.12-.66-.79-1.27-.28-1.86-.08-4.47,1.56-9,2.79-13.75,3.08-3.44.21-6.78-.2-9.94-1.65-4.59-2.11-6.82-5.93-7.71-10.7-.16-.86-.3-1.73-.46-2.69-.79.08-1.14.73-1.59,1.16-4.82,4.6-9.54,9.31-14.64,13.62-.81.69-1.66,1.36-2.58,1.89-1.94,1.11-3.99.9-5.42-.44-1.44-1.35-1.8-3.38-.84-5.37,1.04-2.17,2.66-3.96,4.13-5.83.79-1.01,1.62-1.99,2.18-3.19-2.91,2.65-5.78,5.34-8.74,7.94-2.45,2.16-4.98,4.24-7.51,6.3-.77.63-1.63,1.21-2.53,1.62-1.91.87-3.97.26-4.99-1.37-.98-1.56-.69-3.59.83-4.95,1.31-1.17,2.77-2.17,4.12-3.3,9.24-7.8,17.82-16.29,26.28-24.91,23.71-24.14,47.21-48.47,70.4-73.11,2.54-2.7,4.93-5.54,7.38-8.32.54-.61,1.05-1.26,1.62-1.84,1.85-1.87,4.19-2.15,5.91-.73,1.71,1.41,2.01,3.89.37,5.93-4.14,5.14-8.48,10.11-12.62,15.25-16.73,20.77-34.67,40.5-51.91,60.83-1.7,2.01-3.41,4.03-5.28,6.24,3.44,1.45,3.65,4.33,3.51,7.38-.11,2.4.13,4.75.64,7.1.61,2.77,2.39,4.13,5.04,4.64,3.77.72,7.38-.1,10.98-1.04,3.04-.79,5.99-1.9,8.88-3.13.53-.22,1.02-.47,1.4-.93,6.69-8.06,15.24-13.81,23.99-19.32,4.31-2.71,8.72-5.27,13.52-7.06,1.48-.55,2.99-.99,4.59-.97,4.21.04,6.67,3.64,5.13,7.54-.76,1.92-2.15,3.37-3.72,4.67-2.53,2.08-5.35,3.75-8.19,5.73,2.59,1.57,2.92,3.95,2.72,6.58-.18,2.36-.01,2.52,2.35,2.22,3.09-.4,5.95-1.56,8.76-2.83,8.45-3.81,16.28-8.73,24.33-13.26,2.74-1.54,5.48-3.09,8.28-4.5,1.69-.85,3.5-1.41,5.46-1.02,3.47.7,5.22,3.82,4.14,7.53-1.02,3.51-3.21,6.37-5.29,9.28-.51.71-1.04,1.41-1.69,2.3.93-.05,1.44-.55,2-.88,5.12-2.95,10.2-5.97,15.35-8.86,2.19-1.23,4.52-2.22,7.15-2.12,3.22.12,5.55,2.37,5.77,5.58.18,2.59-.71,4.95-1.65,7.28-.93,2.32-1.96,4.6-3,7.03,1.52.19,2.7-.43,3.89-.86,7.71-2.78,14.97-6.53,22.15-10.44,4.58-2.5,9.12-5.07,13.7-7.57,1.65-.9,3.36-1.72,5.31-1.78,3.82-.13,6.43,2.76,5.88,6.55-.41,2.85-1.71,5.36-3.01,7.87-.36.7-.73,1.39-1.21,2.29,1.09-.05,1.67-.57,2.29-.91,6.8-3.81,13.48-7.84,20.42-11.39,1.91-.98,3.85-1.88,5.96-2.33,5.64-1.21,9.59,2.78,8.36,8.41-.65,2.98-2.08,5.64-3.35,8.37-.39.84-.98,1.61-1.08,2.65,1.77.21,3.39-.39,4.98-.88,14.46-4.5,28.28-10.46,41.16-18.48.85-.53,1.72-1.06,2.65-1.41,1.98-.75,4.05-.06,5.17,1.6,1.1,1.62.93,3.85-.48,5.4-1.29,1.42-2.97,2.32-4.6,3.26-4.42,2.56-8.55,5.53-12.53,8.72-.62.5-1.21,1.05-1.63,1.89,1.51-.71,3.05-1.36,4.52-2.14,6.24-3.28,12.25-6.94,18.12-10.85.57-.38,1.14-.79,1.76-1.09,2.01-.98,4.18-.57,5.48,1.01,1.24,1.5,1.36,3.73.07,5.42-1.3,1.69-2.82,3.21-4.17,4.87-1.37,1.69-2.78,3.37-3.72,5.57,2.84-.26,5.28-1.25,7.68-2.3,11.54-5.02,21.97-11.93,32.22-19.12,20.79-14.61,39.79-31.37,58.62-48.35,5.84-5.26,11.61-10.61,17.39-15.93,1.44-1.32,3.04-2.04,4.99-1.38,1.64.55,2.58,1.78,2.82,3.47.25,1.7-.54,3.05-1.67,4.22-3.41,3.52-6.77,7.1-10.27,10.53-19.14,18.75-38.87,36.87-58.37,55.25-.49.46-1.07.84-1.95,1.52,1.34.06,1.86-.44,2.44-.74,8.25-4.29,16.37-8.84,24.95-12.49,3.01-1.28,6.06-2.46,9.43-2.43,4.94.04,8.08,3.6,7.5,8.51-.41,3.48-1.81,6.64-3.13,9.83-1.54,3.7-3.39,7.29-4.35,11.22-.81,3.31-.13,4.45,3.23,4.87,5.1.63,10.03-.51,14.88-1.83,12.91-3.53,25.79-7.16,38.94-9.75,2.71-.53,5.4-1.15,8.29-.81Z"/>
    <g>
      <path class="c" d="m743.34,222.65c-2.13,1.2-3.92,1.72-5.71,2.18-13.39,3.46-26.81,6.88-40.51,8.88-13.26,1.93-26.57,3.63-40.03,3.21-4.6-.14-9.16-.78-13.33-2.98-5.63-2.96-7.06-8.55-3.41-13.78,3.02-4.33,7.11-7.62,11.16-10.92,7.71-6.27,15.72-12.18,23.06-18.9,3.35-3.06,6.57-6.24,8.92-10.18.13-.22.26-.43.38-.65,2.77-4.94,1.66-7.86-3.75-9.62-5.64-1.84-11.52-2.06-17.36-2.2-16.46-.4-32.83.91-49.13,3.08-40.72,5.43-80.19,16.05-119.23,28.5-57.57,18.35-113.32,41.11-166.95,68.97-1.55.81-2.61,1.41-1.8,3.51.64,1.66-.26,3.31-1.16,4.79-.46.75-1.12,1.44-1.35,2.25-.94,3.26-.88,7.01,4.41,7.7,4.19.55,8.12-.56,12.02-1.81,5.99-1.92,11.33-5.11,16.53-8.56,2.25-1.5,4.51-2.98,6.8-4.43,1.11-.71,2.28-1.33,3.61-1.58,3.56-.67,6.25,1.56,6.22,5.18-.02,2.13-.83,4.04-1.63,5.95-.48,1.13-.97,2.25-1.19,3.62,1.19-.76,2.4-1.51,3.58-2.29,5.51-3.64,10.89-7.49,16.63-10.77,2.18-1.25,4.41-2.45,7.03-2.52,3.7-.11,6.39,2.19,6.84,5.87.35,2.91-.19,5.77-.58,8.63-.79,5.64.52,7.23,6.24,7.27,4.47.03,8.7-1.18,12.91-2.51.49-.15,1.13-.23.73-1.13-2.02-4.47-.29-8.25,2.48-11.65,5.74-7.04,12.97-12.01,21.59-14.93,2.22-.75,4.52-1.11,6.88-.91.87.08,1.76.18,2.6.4,3.69.98,6.31,3.06,7.01,7.35,2.93-2.45,6.2-4.08,8.32-7.35,11.72-18.1,24.7-35.2,40.59-49.93,2.16-2.01,4.45-3.92,7.34-4.87,1.98-.65,3.9-.49,5.46,1.01,1.54,1.49,1.87,3.33,1.29,5.38-.45,1.6-1.29,2.99-2.19,4.36-2.98,4.52-6.3,8.79-9.65,13.04-10.93,13.87-22.81,26.8-36.42,38.15-3.41,2.85-4.57,7.47-4.04,12.06.34,2.97,2.74,4.02,5.33,4.57,3.97.85,7.93.34,11.78-.62,18.28-4.54,34.78-12.71,49.33-24.69,3.88-3.19,8.38-5.04,13.1-6.47,11.01-3.32,22.25-5.3,33.77-5.54,1.96-.04,3.9.19,5.79.68,6.42,1.65,9.26,6.81,7.25,13.15-1.02,3.23-2.91,5.97-4.95,8.61-3.08,3.98-6.61,7.59-9.92,11.38-1.12,1.28-2.23,2.56-3.09,4.04-1.2,2.07-.73,3.33,1.53,3.98,2.26.64,4.6.86,6.92.65,15.97-1.4,31.05-5.99,45.5-12.79.7-.33,1.21-.84,1.66-1.48,4.49-6.5,10.4-11.38,17.3-15.15,1.33-.73,2.72-1.34,4.21-1.63,2.38-.47,4.56-.07,6.1,1.98,1.49,1.98,1.33,4.12.26,6.23-1.08,2.12-2.81,3.7-4.65,5.14-4.86,3.82-10.06,7.11-15.44,10.15-.92.52-2,.89-1.88,2.28.11,1.31,1.01,1.95,2.05,2.49,1.72.88,3.59,1.2,5.47,1.32,3.33.2,6.67.28,9.99-.28.71-.12,1.32-.17,1.53-1.07.85-3.64,3.29-6.18,6.11-8.35,8.51-6.54,18.03-11.19,28.12-14.74,3.86-1.36,7.82-2.36,11.9-2.85,1.89-.23,3.77-.21,5.63.24,4.72,1.12,6.58,5.76,3.94,9.83-1.48,2.27-3.63,3.81-5.87,5.24-5.51,3.53-11.3,6.58-17.19,9.43-.55.27-1.09.56-1.59.98,3.49-.27,6.86-1.07,10.23-1.9,3.35-.82,6.7-1.69,9.9-3.03,2.19-.92,4.2-.44,5.54,1.05,1.35,1.5,1.51,3.52.46,5.63-.14.28-.3.55-.46.82-2.06,3.57-1.85,4.29,2.16,5.56,5.2,1.66,10.62,2,16.03,2.15,4.47.13,8.94-.13,13.4-.28,9.51-.32,19.01.17,28.48,1.03.94.08,1.85.26,2.96.76-.94.87-1.99,1.21-3.02,1.52-14.73,4.52-29.76,6.97-45.21,6.02-6.02-.37-12.07-.86-17.71-3.33-3.81-1.67-6.72-4.22-7.51-8.54-.21-1.17-.82-1.02-1.59-.82-7.31,1.92-14.74,3.26-22.27,3.88-5.76.47-11.57,1.02-17.19-1.03-1.03-.38-1.98.13-2.94.3-6.76,1.22-13.52,1.55-20.21-.29-4.23-1.16-7.71-3.44-9.4-7.73-.47-1.19-1.09-.69-1.75-.41-9.3,3.92-18.96,6.69-28.8,8.84-6.34,1.38-12.76,2.31-19.29,1.69-2.2-.21-4.35-.64-6.39-1.53-5.66-2.45-8.25-8.77-5.88-14.45,1.03-2.47,2.66-4.55,4.38-6.56,3.39-3.97,7.12-7.65,10.34-11.77,1.32-1.69,2.55-3.42,3.4-5.41.64-1.5.17-2.27-1.39-2.47-2.45-.31-4.91-.27-7.36-.07-10.19.85-20.2,2.6-29.87,5.99-3,1.05-5.6,2.7-8.11,4.68-15.76,12.47-33.35,21.26-53.01,25.69-5.42,1.22-10.98,1.61-16.42-.17-6.26-2.05-9.81-6.31-10.36-12.95-.05-.61-.11-1.21-.18-2.02-2.48,1.58-4.75,3.14-7.12,4.53-12.71,7.41-26.09,13.26-40.36,16.96-4.1,1.07-8.3,1.35-12.54.65-6.66-1.1-10.56-5.52-10.74-12.27-.07-2.76.48-5.47.72-8.27-1.21.21-2.06.89-2.94,1.46-5.01,3.25-10,6.55-14.99,9.83-2.63,1.73-5.32,3.36-8.18,4.69-1.31.61-2.66,1.12-4.11,1.33-3.96.58-7.04-2.52-6.48-6.49.33-2.32,1.53-4.32,2.47-6.9-1.06.67-1.79,1.11-2.5,1.58-7.05,4.63-14.53,8.24-22.88,9.9-2.99.59-6,.87-9.01.47-5.25-.7-9.41-3.05-11.51-8.41-3,2.48-5.87,4.82-8.93,6.91-4.01,2.74-8.14,5.26-12.82,6.7-1.87.58-3.78.96-5.76.71-3.67-.46-5.52-2.05-6.36-5.64-.2-.87-.42-1.07-1.22-.59-5.88,3.52-11.77,7.03-17.67,10.52-1.1.65-.37,1.04.1,1.51,3.74,3.65,7.48,7.29,11.21,10.94,1.01.99,1.93,2.06,2.78,3.57-1.8-.36-3.13-1.02-4.45-1.73-5.2-2.83-10.33-5.77-15.26-9.03-1.06-.7-1.79-.68-2.86,0-9.88,6.28-19.51,12.92-29,19.77-.66.48-1.32.97-2.02,1.39-2.45,1.51-4.91,1.18-6.19-.79-1.26-1.94-.64-4.17,1.69-5.82,6.42-4.54,12.84-9.08,19.3-13.57,3.1-2.15,6.3-4.16,9.44-6.25.56-.37,1.25-.58.37-1.48-7.65-7.77-10.97-17.24-10.86-28.03,0-.38-.02-.75-.03-1.13,0-.06-.04-.11-.1-.29-.82.13-1.12.89-1.59,1.39-12.11,12.75-26.55,21.66-43.65,25.98-5.87,1.48-11.84,1.53-17.69-.42-2.32-.77-4.29-2.11-5.77-4.07-.47-.63-.93-.9-1.74-.71-.6.14-1.26.14-1.87.06-1.99-.28-3.32-1.65-3.44-3.44-.13-1.89,1.04-3.57,3.09-3.9,1.39-.22,1.81-.85,2.1-2.11,1.13-4.78,3.88-8.7,7.01-12.34,6.77-7.9,14.75-14.21,24.61-17.88,2.89-1.08,5.87-1.36,8.9-.59,4.69,1.18,6.8,5.18,5.1,9.73-1.16,3.12-3.45,5.38-5.9,7.46-8.19,6.94-16.96,13.02-26.51,17.94-1.1.57-2.2,1.13-3.61,1.86,1.63.88,3.09,1.03,4.56,1.15,8.36.71,15.86-2.16,23.18-5.63,13.4-6.35,24.46-15.57,33.28-27.47.56-.76,1.12-1.54,1.8-2.18,1.28-1.2,2.79-1.71,4.51-.99,1.7.71,2.57,2.09,2.53,3.85-.04,2.19-.37,4.38-.52,6.57-.41,6.04-.65,12.08,1.36,17.92,1.65,4.82,4.25,9.08,7.97,12.63.76.73,1.29.86,2.24.26,11.59-7.22,23.43-14,35.25-20.83,3.59-2.07,6.81-4.75,10.53-6.63,44.26-22.4,88.75-44.29,135.39-61.5,35.82-13.21,72.04-25.11,109.02-34.63,19.62-5.05,39.46-8.99,59.5-11.98,18.52-2.76,37.13-4.39,55.86-4.02,7.23.14,14.49.42,21.4,2.94,4.5,1.64,8.14,4.27,9.6,9.11,1.31,4.34.09,8.33-1.95,12.13-2.84,5.29-7.03,9.47-11.4,13.48-7.84,7.2-16.41,13.52-24.57,20.33-2.56,2.14-4.99,4.41-7.19,6.94-1.1,1.27-.73,1.9.65,2.4,3,1.08,6.12,1.47,9.27,1.56,8.71.25,17.36-.56,25.98-1.67,18.06-2.32,36.18-3.75,54.37-4.2,1.47-.04,2.95.18,4.97.32Zm-538.55,40.58c-7.29-1.12-25.42,12.15-28.66,20.67,10.38-5.82,19.99-12.14,28.66-20.67Zm226.52,20.01c1.07.27,2.13.2,3.14-.11,7.35-2.21,13.48-6.34,18.66-11.94.66-.72,1.92-1.7,1.5-2.4-.6-1.01-2.06-.53-3.15-.25-7.95,2.11-14.28,6.66-19.4,12.98-.38.47-.81.97-.75,1.71Zm-141.87,9.28c5.45-.23,22.28-11.75,26.12-17.79-.22.05-.41.04-.56.12-6.4,3.5-12.84,6.93-19.17,10.54-2.83,1.62-4.73,4.23-6.39,7.13Zm413.17-21.02c-4.57.45-20.54,8.07-23.4,11.1,8.22-3.13,15.96-6.77,23.4-11.1Z"/>
      <path class="c" d="m146.65,317.93c-1.14-1.31-1.99-2.14-2.68-3.09-4.45-6.17-8.54-12.58-12.37-19.16-3.33-5.72-4.96-11.91-5.68-18.39-.12-1.13-.36-1.34-1.46-.89-8.09,3.35-16.37,6.11-24.98,7.77-1.17.23-1.45.75-1.37,1.93.26,3.83.39,7.66.19,11.5-.37,7.04-5.31,10.21-11.88,7.63-3.86-1.51-7.14-3.96-10.36-6.48-5.36-4.19-10.43-8.71-15.4-13.35-.85-.79-1.77-1.36-2.91-1.62-6.11-1.38-11.93-3.56-17.3-6.81-1.33-.8-1.75-.03-2.37.78-9.57,12.41-19.58,24.45-30.02,36.14-.71.79-1.43,1.61-2.28,2.24-1.52,1.13-3.4.96-4.67-.25-1.21-1.16-1.48-2.94-.59-4.5.37-.65.87-1.23,1.37-1.8,10.35-11.76,20.29-23.86,29.87-36.26,1-1.3,1.07-2.07-.2-3.18-1.28-1.11-2.21-2.57-2.85-4.17-1.64-4.12.88-8.05,5.3-8.31,2.15-.13,4.15.42,5.96,1.47,1.33.77,1.96.48,2.82-.74,15.83-22.19,30.15-45.32,43.68-68.95,1.34-2.34,2.71-4.67,4.11-6.99.73-1.21,1.69-2.21,3.06-2.69,2.97-1.03,5.81,1.08,5.72,4.56-.09,3.83-.5,7.65-.84,11.46-1.84,20.55-2.98,41.12-1.86,61.76.3,5.52.64,11.04.8,16.57.05,1.78.64,1.83,2.12,1.5,8.32-1.85,16.29-4.69,24.12-8,1.31-.55,1.7-1.24,1.77-2.63.9-17.22,4.17-33.89,12.09-49.39,3.81-7.45,8.48-14.28,15.02-19.64,5.01-4.1,10.77-6.46,17.27-6.72,7.3-.29,13.64,5.41,14.95,13.34,1.36,8.2-.37,16.01-3.28,23.6-6.22,16.25-17.45,28.29-32.02,37.45-4.58,2.88-9.24,5.63-14.16,7.91-1.05.49-1.33,1.09-1.23,2.17.45,5.21,1.32,10.33,3.22,15.24,3.04,7.85,5.83,15.78,8.38,23.8.47,1.48.99,2.97.92,5.19Zm-56.57-118.57c-.33.39-.43.48-.49.58-12.58,21.7-25.97,42.88-40.66,63.23-.66.92-.42,1.34.39,1.92,4.47,3.18,8.63,6.72,12.68,10.4.56.5,1.1.97,1.92,1.11,8.06,1.31,16.15,1.48,24.27.84,1.05-.08,1.39-.41,1.33-1.48-.33-5.64-.63-11.29-.88-16.94-.53-12.24-.73-24.49.03-36.74.47-7.51.92-15.03,1.4-22.91Zm44.05,63.05c.78.13,1.2-.31,1.68-.57,4.91-2.57,9.64-5.45,14.11-8.7,13.43-9.78,22.88-22.31,26.35-38.82.83-3.95,1.15-7.97-.16-11.92-1.14-3.43-3.41-4.99-7-4.71-4.34.34-8.12,2.12-11.43,4.88-5.45,4.56-9.31,10.35-12.54,16.58-4.87,9.4-7.76,19.44-9.44,29.84-.72,4.44-1.39,8.9-1.59,13.41Zm-60.05,24.03c2.12,1.76,4.22,3.53,6.37,5.27,2.54,2.06,5.17,3.99,8.09,5.51,1.2.62,1.67.35,1.73-.99.14-3.21-.17-6.4-.28-9.6-.02-.77-.38-.95-1.07-.88-4.88.54-9.78.36-14.83.69Z"/>
    </g>
    <g>
      <path class="c" d="m150.47,429.18c-1.09,2.94-1.96,5.42-2.93,7.86-6.17,15.45-14.25,29.93-22.59,44.27-1.8,3.1-3.62,6.18-5.45,9.26-.42.7-.85,1.41-1.4,2-1.35,1.47-3.43,1.73-4.98.72-1.51-.98-2.1-2.83-1.4-4.66.31-.81.77-1.58,1.21-2.34,8.05-13.85,16.06-27.72,22.85-42.26,3.49-7.47,6.38-15.15,8.9-22.99.77-2.4,1.61-4.76,4.61-5.06,2.99-.3,4.45,1.74,5.56,4.01,6,12.24,11.8,24.57,15.64,37.7.87,2.99,1.04,6.05.37,9.13-.16.71-.34,1.45.88,1.2,4.3-.89,8.6-1.77,12.9-3.26-3.32-5.99-.95-10.91,2.84-15.49,3.32-4.01,7.32-7.08,12.61-8.06,3.89-.72,7.47-.11,10.14,3.04,2.67,3.16,2.64,6.78,1.3,10.49-.47,1.31-1.12,2.55-2.01,3.61-1.15,1.36-.75,2.54.28,3.68,1.79,1.97,4.15,2.53,6.68,2.51,2.97-.03,5.89-.49,8.78-1.15.62-.14,1.14-.32,1.4-1.06,1.75-5.17,5.38-8.92,9.63-12.03,7.85-5.76,16.19-10.63,25.85-12.75.83-.18,1.08-.73,1.37-1.36,7.92-16.98,17.74-32.82,29.17-47.65,2.73-3.54,5.74-6.84,9.23-9.67,1.82-1.48,3.74-2.8,6.01-3.46,4.66-1.35,8.38,1.68,8.07,6.52-.12,1.85-.58,3.62-1.38,5.26-11.08,22.86-23.35,44.96-41.17,63.46-1.44,1.5-2.89,2.98-4.43,4.38-.85.77-.8,1.43-.26,2.28,1.63,2.52,4.15,3.36,6.92,3.62,5.44.52,10.63-.73,15.72-2.47,5.24-1.79,10.27-4.11,15.22-6.59.74-.37,1.44-.72,1.55-1.71.7-6.34,3.62-11.73,7.41-16.67,5.51-7.18,12.2-13.02,20.48-16.87,3.09-1.44,6.31-2.1,9.71-1.04,2.07.64,3.79,1.73,4.79,3.69.39.77.97,1.08,1.73,1.26,3.74.86,6.96,2.59,9.21,5.77.69.97,1.48.71,2.33.54,9.93-2.02,19.58-5.07,29.29-7.91,6.81-2,13.55-4.3,20.6-5.33,5.49-.8,9.79,2,10.46,6.77.33,2.32-.29,4.5-1.18,6.6-1.45,3.44-3.54,6.51-5.7,9.52-3.26,4.55-6.57,9.06-9.79,13.63-1.45,2.06-2.72,4.24-3.44,6.67-.64,2.16-.06,3.24,2.14,3.76,4.28,1,8.51.3,12.71-.58,6.55-1.37,12.8-3.67,19-6.1.53-.21,1.07-.39,1.35-.94,2.84-5.6,7.62-9.47,12.26-13.41,6.53-5.55,13.55-10.44,21.1-14.54,3.9-2.11,7.98-3.7,12.42-4.23,6.13-.73,9.44,3.72,7.65,8.54-.21.56-.22,1.03.19,1.57,1.46,1.91,1.25,4,.44,6.09-.71,1.83-1.76,3.52-3.13,4.9-1.55,1.56-1.65,3.3-1.12,5.2,1.24,4.36,3.87,7.54,8.11,9.33,5.25,2.22,10.79,2.98,16.41,3.03,8.81.07,17.61-.8,26.42-.72,6.23.06,12.47-.09,18.69.26,1.25.07,2.51.11,3.92.62-1.46.98-2.99,1.38-4.5,1.75-11.05,2.75-22.14,5.3-33.46,6.66-10.22,1.23-20.35.93-30.14-2.81-6.29-2.4-10.64-6.75-13.27-12.9-.14-.33-.33-.65-.56-1.08-4.9,3.82-10.12,6.96-15.6,9.66-4.82,2.38-9.79,4.28-15.27,4.45-3.13.1-6.2-.1-8.78-2.15-.85-.67-1.54-.2-2.27.08-7.13,2.69-14.33,5.12-21.9,6.24-4.76.7-9.54,1-14.19-.64-6.16-2.17-9.01-7.66-7.36-13.97.92-3.52,2.68-6.64,4.73-9.58,3.38-4.84,6.91-9.59,10.36-14.39,1.47-2.04,2.88-4.12,3.98-6.4.29-.6.97-1.35.59-1.88-.48-.65-1.43-.17-2.11-.02-5.24,1.09-10.35,2.64-15.47,4.15-10.67,3.15-21.26,6.56-32.21,8.66-.83.16-1.29.51-1.39,1.45-.4,3.56-1.68,6.86-3.67,9.79-6.82,10.08-15.73,17.58-27.5,21.27-4.51,1.41-9.12,1.77-13.75.33-3.77-1.17-6.74-3.4-8.65-6.85-.67-1.2-1.22-1.19-2.32-.66-5.94,2.9-11.98,5.56-18.41,7.2-6.52,1.66-13.08,2.62-19.7.36-2.94-1-5.47-2.62-7.29-5.13-.85-1.17-1.36-1.17-2.46-.28-5.5,4.44-11.34,8.35-18.05,10.78-1.61.58-3.26.98-4.95,1.14-3.15.3-6.03-.41-8.26-2.81-.7-.75-1.35-.87-2.32-.67-4.13.85-8.27,1.56-12.54,1.08-4.5-.51-8.13-2.49-10.94-5.99-.47-.58-.71-1.02-1.61-.45-8.3,5.33-17.67,7.74-27.18,9.7-7.23,1.49-14.53,2.39-21.94,1.9-5.09-.34-9.9-1.75-14.48-3.92-2.6-1.23-3.59-3.5-2.72-5.67.88-2.19,3.05-3.02,5.88-2.23,4.54,1.26,9.01,2.79,13.75,3.21.44.04.88.09,1.32.08,5.62-.04,7.8-2.65,6.85-8.15-.65-3.74-2.08-7.23-3.44-10.74-2.7-6.96-5.64-13.82-8.99-20.98Zm174.76,31.4c.94-.15,2.35-.23,3.66-.6,10.88-3.11,18.84-9.95,24.71-19.43.39-.63.61-1.37.92-2.06.44-.97.41-1.47-.94-1.39-3.26.18-6.54.3-9.79-.19-.78-.12-1.3.21-1.84.7-7.3,6.59-15.24,12.33-23.62,17.45-1.21.74-1.17,1.4-.47,2.39,1.7,2.42,4.22,2.98,7.38,3.13Zm-19.99-73.14c-.1-.08-.19-.15-.29-.23-.99,1.05-2.01,2.07-2.96,3.15-7.33,8.42-13.33,17.77-19.06,27.3-3.91,6.51-7.77,13.05-10.9,19.99-.25.55-.76,1.21.01,1.66.69.41.96-.38,1.28-.76,1.72-2.08,3.45-4.16,5.08-6.31,10.35-13.67,18.59-28.61,26.42-43.81.16-.32.28-.67.42-1Zm27.58,40.95c-5.75,4.42-10.59,9.33-13.69,15.77,5.17-3.21,10.02-6.81,14.63-10.74.28-.24.62-.51.33-.94-.81-1.15-.87-2.56-1.26-4.09Zm-130.24,20.41c-3.84-.05-10.71,5.52-11.37,9.14-.19,1.06.45.87.96.63,4.24-1.94,8.19-4.32,11.24-7.95.32-.38,1.03-.74.66-1.38-.32-.54-1.01-.38-1.49-.45Zm36.31,10.1c7.2-2.73,13.91-6.34,20.28-10.6.57-.38,1.04-.95.67-1.55-.3-.48-.91,0-1.35.16-6.02,2.3-11.5,5.57-16.73,9.29-1.07.76-2.13,1.54-2.87,2.7Zm225.64-18.05c4.03-2.04,7.82-4.43,11.29-7.32-4.05,2-7.78,4.49-11.29,7.32Z"/>
      <path class="c" d="m57.39,477.42c-.06-3.72,1.05-6.74,2.16-9.74,4.4-11.91,10.81-22.79,17.45-33.54,12.21-19.79,26.55-38.02,41.03-56.16,6.32-7.9,12.79-15.7,17.92-24.48,1.01-1.74,1.91-3.54,2.39-5.51.51-2.1.07-2.66-2.12-2.29-2.48.41-4.94.93-7.37,1.56-25.72,6.63-50.2,16.61-74.35,27.5-7.33,3.31-14.7,6.55-22.06,9.8-.97.43-1.99.79-3.01,1.09-2.5.71-4.71-.25-5.5-2.33-.84-2.2.2-4.44,2.71-5.44,4.79-1.91,9.49-4.01,14.18-6.16,20.12-9.21,40.33-18.21,61.35-25.22,10.08-3.36,20.22-6.52,30.63-8.69,2.59-.54,5.22-.76,7.84.06,4.36,1.36,6.8,5.24,6.16,9.74-.78,5.46-3.56,10.02-6.54,14.46-7.02,10.45-15.13,20.08-22.95,29.92-14.8,18.63-28.76,37.83-40.43,58.61-4.09,7.29-7.88,14.73-10.44,22.73-.32,1.02-.6,2.04-.7,3.11-.15,1.62.33,2.89,1.55,4.02,3.32,3.09,6.55,6.26,9.58,9.63.57.64,1.57,1.46,1.17,2.17-.46.8-1.62.18-2.41-.06-4.35-1.3-8.55-2.94-12.52-5.18-3.94-2.23-5.89-5.53-5.72-9.62Z"/>
    </g>
  </g>
  <g>
    <path class="b" d="m133.79,97.31c-4.55,8.78-10.79,16.05-18.72,21.81-7.94,5.76-17.14,10.06-27.6,12.89-10.46,2.83-21.57,4.25-33.34,4.25H13.31v-.09c2.86-.68,5.06-1.46,6.58-2.33,1.53-.87,2.58-2.1,3.18-3.69.59-1.59.89-3.72.89-6.4V13.91c0-2.74-.3-4.89-.89-6.44-.59-1.56-1.65-2.79-3.18-3.69-1.53-.9-3.72-1.67-6.58-2.29v-.09h40.81c17.49,0,32.72,2.44,45.67,7.33,12.95,4.89,22.99,12.14,30.12,21.76,7.13,9.62,10.69,21.56,10.69,35.82,0,11.89-2.27,22.23-6.82,31.01Zm-26.2-63.32c-4.64-9.84-11.57-17.59-20.78-23.26-9.22-5.66-20.67-8.69-34.37-9.06l-4.95-.19v134.67l4.95-.19c13.45-.37,24.76-3.32,33.95-8.83,9.18-5.51,16.17-13.23,20.97-23.16,4.79-9.93,7.19-21.78,7.19-35.54s-2.32-24.62-6.96-34.46Z"/>
    <path class="b" d="m252.99,33.34h-.09c-1.81-7.59-4.31-13.54-7.52-17.84-3.21-4.3-7.77-7.46-13.68-9.48-5.92-2.02-13.88-3.28-23.91-3.78l-14.01-.75v65.56l23.16-.93c5.23-.25,9.18-1.09,11.86-2.52,2.68-1.43,4.64-3.5,5.88-6.21,1.24-2.71,2.27-6.12,3.08-10.23h.09v39.97h-.09c-.81-4.11-1.82-7.52-3.04-10.23s-3.17-4.78-5.88-6.21c-2.71-1.43-6.68-2.27-11.91-2.52l-23.16-.93v68.92l20.45-1.03c7.22-.37,13.34-1.2,18.35-2.48,5.01-1.27,9.14-3.19,12.37-5.74,3.24-2.55,5.88-5.92,7.94-10.09s3.77-9.34,5.14-15.5h.09l-1.87,34.93h-96.66v-.09c2.86-.68,5.06-1.46,6.58-2.33,1.53-.87,2.58-2.1,3.18-3.69.59-1.59.89-3.72.89-6.4V13.91c0-2.74-.3-4.89-.89-6.44-.59-1.56-1.65-2.79-3.18-3.69-1.53-.9-3.72-1.67-6.58-2.29v-.09h91.8l1.59,31.94Z"/>
    <path class="b" d="m283.66,37.96c3.67-8.37,8.72-15.38,15.13-21.01,6.41-5.63,13.79-9.87,22.13-12.7,8.34-2.83,17.21-4.25,26.62-4.25,11.27,0,20.13.86,26.57,2.57,6.44,1.71,11.19,3.63,14.24,5.74l1.31,33.9h-.09c-1.18-5.85-2.94-11.33-5.28-16.44-2.34-5.1-5.28-9.56-8.83-13.36-3.55-3.8-7.66-6.77-12.33-8.92s-9.87-3.22-15.6-3.22c-8.78,0-16.41,2.69-22.88,8.08-6.48,5.39-11.5,13.01-15.08,22.88-3.58,9.87-5.37,21.53-5.37,34.97,0,8.78.87,17.4,2.61,25.87,1.74,8.47,4.4,16.11,7.99,22.93,3.58,6.82,8.16,12.25,13.73,16.3,5.57,4.05,12.22,6.07,19.94,6.07,4.98,0,9.67-.97,14.06-2.9,4.39-1.93,8.39-4.7,12-8.31s6.72-8.02,9.34-13.22c2.62-5.2,4.58-11.07,5.88-17.6h.19l-1.31,33.9c-1.68,1.18-4.42,2.43-8.22,3.74-3.8,1.31-8.42,2.41-13.87,3.31-5.45.9-11.47,1.35-18.07,1.35-10.46,0-19.99-1.65-28.58-4.95-8.59-3.3-16-8.02-22.23-14.15-6.23-6.13-11.04-13.53-14.43-22.18-3.39-8.65-5.09-18.37-5.09-29.14s1.84-20.9,5.51-29.28Z"/>
    <path class="b" d="m514.88,127.2c1.53,2.8,3.19,4.86,5,6.16,1.8,1.31,3.98,2.24,6.54,2.8v.09h-49.12v-.09c3.24-.43,5.68-1.38,7.33-2.85,1.65-1.46,2.49-3.66,2.52-6.58s-.76-6.73-2.38-11.39l-31.1-90.96h.09l-27.92,84.71c-2.12,6.6-3.36,11.75-3.74,15.46-.37,3.71.28,6.41,1.96,8.12,1.68,1.71,4.54,2.88,8.59,3.5v.09h-29.04v-.09c2.68-.56,4.98-1.62,6.91-3.17,1.93-1.56,3.86-4.22,5.79-7.99,1.93-3.77,4.17-9.23,6.72-16.39L461.7,1.4h8.31l40.06,114.31c1.68,4.86,3.28,8.69,4.81,11.49Zm-82.51-41.56h53.88l.19,1.31h-54.54l.47-1.31Z"/>
    <path class="b" d="m120.43,208.1h-.09c-1.68-7.41-3.95-13.26-6.82-17.56-2.87-4.3-6.76-7.5-11.67-9.62-4.92-2.12-11.27-3.52-19.05-4.2l-4.86-.47v120.75c0,2.99.28,5.42.84,7.28.56,1.87,1.68,3.3,3.36,4.3,1.68,1,4.11,1.77,7.28,2.33v.09h-46.41v-.09c3.3-.56,5.76-1.34,7.38-2.33,1.62-1,2.71-2.43,3.27-4.3.56-1.87.84-4.3.84-7.28v-120.75l-4.86.47c-7.72.69-14.04,2.09-18.96,4.2-4.92,2.12-8.81,5.32-11.67,9.62-2.86,4.3-5.17,10.15-6.91,17.56h-.09l1.59-31.94h105.25l1.59,31.94Z"/>
    <path class="b" d="m234.59,226.27c-2.49,4.26-5.9,7.83-10.23,10.69-4.33,2.86-9.26,4.86-14.8,5.98v-3.08l22.6,46.13c3.3,6.54,6.04,11.47,8.22,14.8,2.18,3.33,4.11,5.68,5.79,7.05,1.68,1.37,3.36,2.4,5.04,3.08v.09h-30.44l-31.19-64.91h-18.12v53.14c0,2.49.29,4.45.89,5.88.59,1.43,1.62,2.57,3.08,3.41,1.46.84,3.53,1.63,6.21,2.38v.09h-44.36v-.09c2.86-.81,5.06-1.65,6.58-2.52,1.53-.87,2.58-2.08,3.18-3.64.59-1.56.89-3.64.89-6.26v-109.83c0-2.86-.3-5.09-.89-6.68-.59-1.59-1.65-2.8-3.18-3.64-1.53-.84-3.72-1.54-6.58-2.1v-.09h45.01c12.45,0,22.82,1.45,31.1,4.34,8.28,2.9,14.51,7.02,18.68,12.37,4.17,5.35,6.26,11.64,6.26,18.86,0,5.42-1.25,10.26-3.74,14.52Zm-23.21-31.05c-2.21-5.29-5.88-9.65-11.02-13.08-5.14-3.42-12.16-5.29-21.06-5.6l-7.84-.28v69.76l10.37-.37c9.59-.37,17.46-3.38,23.63-9.01,6.16-5.63,9.25-13.71,9.25-24.23,0-6.16-1.11-11.89-3.32-17.18Z"/>
    <path class="b" d="m364.67,301.96c1.52,2.8,3.19,4.86,5,6.16,1.81,1.31,3.98,2.24,6.54,2.8v.09h-49.12v-.09c3.24-.43,5.68-1.38,7.33-2.85,1.65-1.46,2.49-3.66,2.52-6.58.03-2.93-.76-6.73-2.38-11.39l-31.1-90.96h.09l-27.92,84.71c-2.12,6.6-3.36,11.75-3.74,15.46-.37,3.71.28,6.41,1.96,8.12,1.68,1.71,4.54,2.88,8.59,3.5v.09h-29.04v-.09c2.68-.56,4.98-1.62,6.91-3.17,1.93-1.56,3.86-4.22,5.79-7.99,1.93-3.77,4.17-9.23,6.72-16.39l38.66-107.21h8.31l40.06,114.31c1.68,4.86,3.28,8.69,4.81,11.49Zm-82.51-41.56h53.89l.19,1.31h-54.54l.47-1.31Z"/>
    <path class="b" d="m495.69,282.07h-.09l-1.77-78.54c-.12-6.85-.51-12.16-1.17-15.92-.65-3.77-1.87-6.46-3.64-8.08-1.77-1.62-4.41-2.71-7.89-3.27v-.09h28.39v.09c-3.43.5-6.02,1.59-7.8,3.27s-2.99,4.39-3.64,8.12c-.65,3.74-1.01,9.03-1.07,15.88l-1.31,107.49h-9.99l-87.69-127.95h1.31l1.59,100.58c.12,6.85.5,12.16,1.12,15.92.62,3.77,1.84,6.46,3.64,8.08,1.81,1.62,4.45,2.71,7.94,3.27v.09h-28.39v-.09c3.49-.56,6.1-1.66,7.84-3.31,1.74-1.65,2.94-4.36,3.6-8.13.65-3.77,1.01-9.04,1.07-15.83l1.4-91.06c.06-3.36-.3-6.08-1.07-8.17-.78-2.08-1.95-3.77-3.5-5.04-1.56-1.27-3.49-2.32-5.79-3.13v-.09h34.37l72.56,105.9Z"/>
    <path class="b" d="m630.96,282.07h-.09l-1.77-78.54c-.12-6.85-.51-12.16-1.17-15.92-.65-3.77-1.87-6.46-3.64-8.08-1.77-1.62-4.41-2.71-7.89-3.27v-.09h28.39v.09c-3.43.5-6.02,1.59-7.8,3.27s-2.99,4.39-3.64,8.12c-.65,3.74-1.01,9.03-1.07,15.88l-1.31,107.49h-9.99l-87.69-127.95h1.31l1.59,100.58c.12,6.85.5,12.16,1.12,15.92.62,3.77,1.84,6.46,3.64,8.08,1.81,1.62,4.45,2.71,7.94,3.27v.09h-28.39v-.09c3.49-.56,6.1-1.66,7.84-3.31s2.94-4.36,3.6-8.13c.65-3.77,1.01-9.04,1.07-15.83l1.4-91.06c.06-3.36-.3-6.08-1.07-8.17-.78-2.08-1.95-3.77-3.5-5.04-1.56-1.27-3.49-2.32-5.79-3.13v-.09h34.37l72.57,105.9Z"/>
    <path class="b" d="m694.92,304.9c.59,1.59,1.65,2.82,3.17,3.69,1.53.87,3.72,1.65,6.59,2.33v.09h-44.83v-.09c2.86-.68,5.06-1.46,6.58-2.33,1.53-.87,2.58-2.1,3.18-3.69.59-1.59.89-3.72.89-6.4v-109.83c0-2.74-.3-4.89-.89-6.44-.59-1.56-1.65-2.79-3.18-3.69s-3.72-1.67-6.58-2.29v-.09h44.83v.09c-2.87.62-5.06,1.39-6.59,2.29s-2.58,2.13-3.17,3.69c-.59,1.56-.89,3.7-.89,6.44v109.83c0,2.68.29,4.81.89,6.4Z"/>
    <path class="b" d="m19.1,359.98c-1.49-2.8-3.16-4.87-5-6.21-1.84-1.34-4.03-2.26-6.58-2.75v-.09h49.12v.09c-3.18.44-5.59,1.39-7.24,2.85-1.65,1.46-2.49,3.66-2.52,6.59-.03,2.93.73,6.72,2.29,11.39l31.19,90.96h-.09l27.74-84.71c2.18-6.6,3.47-11.75,3.88-15.46.4-3.7-.23-6.43-1.91-8.17-1.68-1.74-4.55-2.9-8.59-3.45v-.09h28.95v.09c-2.62.5-4.89,1.54-6.82,3.13-1.93,1.59-3.85,4.27-5.74,8.03-1.9,3.77-4.16,9.23-6.77,16.39l-38.76,107.21h-8.22l-40.16-114.31c-1.68-4.86-3.27-8.69-4.76-11.49Z"/>
    <path class="b" d="m236.08,382.86h-.09c-1.81-7.59-4.31-13.54-7.52-17.84-3.21-4.3-7.77-7.46-13.68-9.48-5.92-2.02-13.88-3.28-23.91-3.78l-14.01-.75v65.56l23.16-.93c5.23-.25,9.18-1.09,11.86-2.52,2.68-1.43,4.64-3.5,5.88-6.21,1.24-2.71,2.27-6.12,3.08-10.23h.09v39.97h-.09c-.81-4.11-1.82-7.52-3.04-10.23s-3.17-4.78-5.88-6.21c-2.71-1.43-6.68-2.27-11.91-2.52l-23.16-.93v68.92l20.45-1.03c7.22-.37,13.34-1.2,18.35-2.48,5.01-1.27,9.14-3.19,12.37-5.74,3.24-2.55,5.88-5.92,7.94-10.09s3.77-9.34,5.14-15.5h.09l-1.87,34.93h-96.66v-.09c2.86-.68,5.06-1.46,6.58-2.33,1.53-.87,2.58-2.1,3.18-3.69.59-1.59.89-3.72.89-6.4v-109.83c0-2.74-.3-4.89-.89-6.44-.59-1.56-1.65-2.79-3.18-3.69-1.53-.9-3.72-1.67-6.58-2.29v-.09h91.8l1.59,31.94Z"/>
    <path class="b" d="m357.53,401.03c-2.49,4.26-5.9,7.83-10.23,10.69-4.33,2.86-9.26,4.86-14.8,5.98v-3.08l22.6,46.13c3.3,6.54,6.04,11.47,8.22,14.8,2.18,3.33,4.11,5.68,5.79,7.05,1.68,1.37,3.36,2.4,5.04,3.08v.09h-30.44l-31.19-64.91h-18.12v53.14c0,2.49.29,4.45.89,5.88.59,1.43,1.62,2.57,3.08,3.41,1.46.84,3.53,1.63,6.21,2.38v.09h-44.36v-.09c2.86-.81,5.06-1.65,6.58-2.52,1.53-.87,2.58-2.08,3.18-3.64.59-1.56.89-3.64.89-6.26v-109.83c0-2.86-.3-5.09-.89-6.68-.59-1.59-1.65-2.8-3.18-3.64-1.53-.84-3.72-1.54-6.58-2.1v-.09h45.01c12.45,0,22.82,1.45,31.1,4.34,8.28,2.9,14.51,7.02,18.68,12.37,4.17,5.35,6.26,11.64,6.26,18.86,0,5.42-1.25,10.26-3.74,14.52Zm-23.21-31.05c-2.21-5.29-5.88-9.65-11.02-13.08-5.14-3.42-12.16-5.29-21.06-5.6l-7.84-.28v69.76l10.37-.37c9.59-.37,17.46-3.38,23.63-9.01,6.16-5.63,9.25-13.71,9.25-24.23,0-6.16-1.11-11.89-3.32-17.18Z"/>
    <path class="b" d="m408.98,484.66c-6.82-1.68-12.28-3.64-16.39-5.88l-1.59-33.99h.09c1.49,6.97,3.63,13.08,6.4,18.3,2.77,5.23,6.02,9.61,9.76,13.12,3.74,3.52,7.86,6.18,12.37,7.99,4.51,1.8,9.26,2.71,14.24,2.71,7.97,0,14.6-2.43,19.89-7.28,5.29-4.86,7.94-11.52,7.94-19.99,0-6.97-2.13-12.78-6.4-17.42-4.26-4.64-11.01-8.76-20.22-12.37l-11.02-4.3c-10.4-4.05-18.37-9.37-23.91-15.97-5.54-6.6-8.31-14.57-8.31-23.91,0-8.34,2.13-15.18,6.4-20.5,4.26-5.32,9.85-9.26,16.76-11.81,6.91-2.55,14.35-3.83,22.32-3.83,8.72,0,15.88.73,21.48,2.19,5.6,1.46,9.71,3.04,12.33,4.72l1.03,29.7h-.09c-1.87-7.41-4.41-13.82-7.61-19.24-3.21-5.42-7.07-9.62-11.58-12.61-4.52-2.99-9.7-4.48-15.55-4.48-8.72,0-15.35,2.19-19.89,6.58-4.55,4.39-6.82,10.04-6.82,16.95s2.32,12.9,6.96,17.42c4.64,4.51,11.16,8.45,19.57,11.81l10.74,4.3c10.52,4.23,18.6,9.74,24.23,16.53,5.63,6.79,8.45,14.85,8.45,24.19,0,8.09-2.16,15.1-6.49,21.01-4.33,5.92-10.02,10.49-17.09,13.73-7.07,3.24-14.77,4.86-23.11,4.86-9.78,0-18.07-.84-24.89-2.52Z"/>
    <path class="b" d="m600.18,476.72c1.52,2.8,3.19,4.86,5,6.16,1.8,1.31,3.98,2.24,6.54,2.8v.09h-49.12v-.09c3.24-.43,5.68-1.38,7.33-2.85,1.65-1.46,2.49-3.66,2.52-6.58.03-2.93-.76-6.73-2.38-11.39l-31.1-90.96h.09l-27.92,84.71c-2.12,6.6-3.36,11.75-3.74,15.46-.37,3.71.28,6.41,1.96,8.12,1.68,1.71,4.54,2.88,8.59,3.5v.09h-29.04v-.09c2.68-.56,4.98-1.62,6.91-3.17s3.86-4.22,5.79-7.99c1.93-3.77,4.17-9.23,6.72-16.39l38.66-107.21h8.31l40.06,114.31c1.68,4.86,3.28,8.69,4.81,11.49Zm-82.51-41.56h53.88l.19,1.31h-54.54l.47-1.31Z"/>
    <path class="b" d="m721.39,401.03c-2.49,4.26-5.9,7.83-10.23,10.69-4.33,2.86-9.26,4.86-14.8,5.98v-3.08l22.6,46.13c3.3,6.54,6.04,11.47,8.22,14.8,2.18,3.33,4.11,5.68,5.79,7.05,1.68,1.37,3.36,2.4,5.04,3.08v.09h-30.44l-31.19-64.91h-18.12v53.14c0,2.49.29,4.45.89,5.88.59,1.43,1.62,2.57,3.08,3.41,1.46.84,3.53,1.63,6.21,2.38v.09h-44.36v-.09c2.86-.81,5.06-1.65,6.58-2.52s2.58-2.08,3.18-3.64c.59-1.56.89-3.64.89-6.26v-109.83c0-2.86-.3-5.09-.89-6.68-.59-1.59-1.65-2.8-3.18-3.64-1.53-.84-3.72-1.54-6.58-2.1v-.09h45.01c12.45,0,22.82,1.45,31.1,4.34s14.51,7.02,18.68,12.37c4.17,5.35,6.26,11.64,6.26,18.86,0,5.42-1.25,10.26-3.74,14.52Zm-23.21-31.05c-2.21-5.29-5.88-9.65-11.02-13.08-5.14-3.42-12.16-5.29-21.06-5.6l-7.84-.28v69.76l10.37-.37c9.59-.37,17.46-3.38,23.63-9.01,6.16-5.63,9.24-13.71,9.24-24.23,0-6.16-1.11-11.89-3.32-17.18Z"/>
    <path class="b" d="m749.26,359c-2.12-2.77-4.03-4.7-5.74-5.79-1.71-1.09-3.63-1.82-5.74-2.19v-.09h48.19v.09c-4.3.81-6.94,2.65-7.94,5.51-1,2.86.56,7.97,4.67,15.32l26.43,47.16,21.57-41.37c3.55-6.66,5.81-11.8,6.77-15.41.96-3.61.7-6.24-.79-7.89-1.49-1.65-4.11-2.75-7.84-3.31v-.09h28.2v.09c-2.43.56-4.67,1.6-6.72,3.13-2.06,1.53-4.38,4.14-6.96,7.85-2.58,3.7-5.93,9.07-10.04,16.11l-24.19,41.37v52.3c0,2.99.28,5.42.84,7.28.56,1.87,1.68,3.3,3.36,4.3,1.68,1,4.11,1.77,7.28,2.33v.09h-46.32v-.09c3.24-.56,5.66-1.34,7.28-2.33,1.62-1,2.71-2.43,3.27-4.3s.84-4.3.84-7.28v-50.52l-28.39-49.68c-3.24-5.6-5.92-9.79-8.03-12.56Z"/>
  </g>
</svg>