<?xml version="1.0" encoding="UTF-8"?>
<svg id="a" data-name="Layer 1" xmlns="http://www.w3.org/2000/svg" viewBox="0 0 510 510">
  <defs>
    <style>
      .b {
        fill: #270d15;
        stroke-width: 0px;
      }
    </style>
  </defs>
  <path class="b" d="M255,0C114.39,0,0,114.39,0,255s114.39,255,255,255,255-114.39,255-255S395.61,0,255,0ZM472.79,255c0,120.94-97.7,219.33-217.79,219.33S37.21,375.94,37.21,255,134.91,35.66,255,35.66s217.79,98.39,217.79,219.34Z"/>
  <path class="b" d="M245.86,116.48c-1.47,9.9-11.62,80.28-17.23,114.77-22.06-8.16-42.25-10.82-62.31-8.84-10.48,1.03-20.52,3.5-29.82,7.32-9.42,3.87-18.16,9.16-26,15.73-7.84,6.58-18.51,20.16-24.99,38.58-5.2,14.8-9.24,37.74,1.1,62.94,6.59,16.07,18.01,29.41,33.02,38.58,13.5,8.25,29.54,12.79,45.16,12.79,5.91,0,11.67-.64,17.12-1.92,23.99-5.59,42.43-19.88,54.8-42.48,10.19-18.61,14.83-38.59,17.42-51.81,1.04-5.32,2.09-10.8,3.13-16.36,19.55,13.69,35.22,31.1,46.89,50.6,11.23,18.78,19.33,37.04,15.69,62.04l37.02.05,42.32-282h-36.88l-29.84,197.77c-3.12-4.85-6.53-9.64-10.18-14.31-15.98-20.49-36.31-38.33-58.99-51.94,5.58-39.55,18.22-121.87,19.65-131.51h-37.12ZM223.62,267.59c-1.69,9.33-3.44,18.65-5.22,27.74-2.89,14.76-6.5,30.08-13.26,42.2-7.31,13.1-17.56,21.03-31.33,24.24-9.48,2.21-20.61.79-30.53-3.89-10.89-5.14-19.28-13.79-23.62-24.37-6.19-15.1-3.53-29.23-.2-38.44,3.77-10.43,9.91-18.89,14.03-22.35,5.95-4.99,12.79-8.82,20.32-11.37,7.49-2.54,15.69-3.82,24.38-3.82,14.27,0,29.55,3.38,45.44,10.06Z"/>
</svg>